# xmcd
#
# Track frame offsets:
#	150
#	48257
#	99870
#	169892
#	233572
#	272180
#
# Disc length: 3976 seconds
#
# Revision: 3
# Processed by: cddbd v1.4PL0 Copyright (c) Steve Scherf et al.
# Submitted via: EasyCDDAExtractor 5.1.0
#
DISCID=430f8606
DTITLE=Grinderswitch - Live Tracks
DYEAR=1994
DGENRE=Blues
TTITLE0=Kiss The Blues Goodbye
TTITLE1=You´re Gonna Miss Me When I´m Gone
TTITLE2=How The West Was Won
TTITLE3=Pickin´ The Blues/I Ain´t Got The Blues No More
TTITLE4=Stoop Down Baby
TTITLE5=Hideaway
EXTD=
EXTT0=
EXTT1=
EXTT2=
EXTT3=
EXTT4=
EXTT5=
PLAYORDER=
